<!DOCTYPE svg PUBLIC "-//W3C//DTD SVG 1.1//EN" "http://www.w3.org/Graphics/SVG/1.1/DTD/svg11.dtd">
<!-- Uploaded to: SVG Repo, www.svgrepo.com, Transformed by: SVG Repo Mixer Tools -->
<svg fill="#f08c00" height="800px" width="800px" version="1.1" id="Capa_1" xmlns="http://www.w3.org/2000/svg" xmlns:xlink="http://www.w3.org/1999/xlink" viewBox="0 0 476.164 476.164" xml:space="preserve" stroke="#f08c00">
<g id="SVGRepo_bgCarrier" stroke-width="0"/>
<g id="SVGRepo_tracerCarrier" stroke-linecap="round" stroke-linejoin="round"/>
<g id="SVGRepo_iconCarrier"> <g> <path d="M78.736,249.209h64.7c-12.79-25.061-34.581-57.28-71.556-91.496c-7.211-6.673-16.897-10.5-26.577-10.5 c-10.177,0-20.15,3.945-29.643,11.727c-29.601,24.263-9.415,54.24-2.523,62.851c9.107,11.378,18.639,27.408,27.039,46.482 C49.069,256.693,63.042,249.209,78.736,249.209z"/> <path d="M460.503,158.94c-9.493-7.781-19.466-11.727-29.643-11.727c-9.679,0-19.366,3.827-26.577,10.5 c-36.976,34.216-58.766,66.435-71.555,91.496h64.7c15.689,0,29.659,7.48,38.551,19.054c8.402-19.072,17.938-35.094,27.046-46.473 C469.918,213.18,490.104,183.202,460.503,158.94z"/> <path d="M426.034,362.146v-64.33c0-15.773-12.832-28.606-28.605-28.606H78.736c-15.773,0-28.605,12.833-28.605,28.606v64.33 c0,15.773,12.832,28.605,28.605,28.605h318.692C413.202,390.751,426.034,377.919,426.034,362.146z"/> <polygon points="361.503,410.751 366.222,448.111 390.289,448.111 395.008,410.751 "/> <polygon points="81.156,410.751 85.875,448.111 109.943,448.111 114.662,410.751 "/> <path d="M310.398,249.209c13.707-29.733,37.827-66.87,80.301-106.176c5.991-5.544,12.943-9.722,20.426-12.393 C384.207,70.678,316.8,28.053,238.082,28.053c-78.718,0-146.137,42.62-173.056,102.583c7.487,2.671,14.443,6.85,20.438,12.397 c42.474,39.305,66.594,76.441,80.301,106.176H310.398z"/> </g> </g>
</svg>